<svg width="15" height="20" viewBox="0 0 15 20" fill="none" xmlns="http://www.w3.org/2000/svg">
<g clip-path="url(#clip0_198_6713)">
<path d="M9.55204 0.0927734C9.49088 0.0374349 9.40397 0 9.31867 0C9.30097 0 9.28165 0 9.26234 0.00488281H0.775751C0.566524 0.00488281 0.370172 0.0927735 0.228541 0.236003C0.0869099 0.379232 0 0.572917 0 0.791016V16.6276C0 16.8457 0.0869099 17.0378 0.228541 17.181C0.370172 17.3242 0.560086 17.4121 0.775751 17.4121H5.57672V16.7106H0.769313C0.75161 16.7106 0.725858 16.7041 0.712983 16.6846C0.700107 16.6716 0.687232 16.6471 0.687232 16.6276V0.791016C0.687232 0.764974 0.693669 0.74707 0.712983 0.73405C0.725858 0.721029 0.743562 0.708008 0.769313 0.708008H8.95976H8.9662V0.709635V3.78092C8.9662 4.07389 9.08369 4.34245 9.27522 4.53451C9.46513 4.72656 9.73069 4.84701 10.0204 4.84701H13.0011V8.22103H13.7108V4.57682C13.7173 4.5459 13.7237 4.51986 13.7237 4.48893C13.7237 4.38314 13.6754 4.28874 13.6062 4.22038L9.59388 0.118815C9.58101 0.105794 9.57618 0.100911 9.5633 0.0927734H9.55204ZM7.66738 9.58008H14.4029C14.5671 9.58008 14.7167 9.64681 14.8262 9.75749L14.8391 9.77214C14.9405 9.87956 15.0016 10.026 15.0016 10.1839V19.3962C15.0016 19.5622 14.9356 19.7119 14.8262 19.8226L14.8246 19.8242C14.7167 19.9333 14.5671 20.0016 14.4029 20.0016H7.66738C7.50322 20.0016 7.35354 19.9349 7.2441 19.8242L7.23122 19.8096C7.12983 19.7021 7.06867 19.5557 7.06867 19.3978V10.1855C7.06867 10.0195 7.13466 9.86979 7.2441 9.75911L7.24571 9.75749C7.35193 9.65007 7.50322 9.58008 7.66738 9.58008ZM13.0188 11.3428H13.2103V12.391H13.0188V11.3428ZM8.47854 13.9827H9.42006C9.50054 13.9827 9.56652 14.0495 9.56652 14.1309V14.9349C9.56652 15.0163 9.50054 15.083 9.42006 15.083H8.47854C8.39807 15.083 8.33208 15.0163 8.33208 14.9349V14.1309C8.33047 14.0495 8.39807 13.9827 8.47854 13.9827ZM8.47854 17.8027H9.42006C9.50054 17.8027 9.56652 17.8695 9.56652 17.9508V18.7533C9.56652 18.8346 9.50054 18.9014 9.42006 18.9014H8.47854C8.39807 18.9014 8.33208 18.8346 8.33208 18.7533V17.9492C8.33047 17.8711 8.39807 17.8027 8.47854 17.8027ZM8.47854 15.8919H9.42006C9.50054 15.8919 9.56652 15.9587 9.56652 16.0417V16.8457C9.56652 16.9271 9.50054 16.9938 9.42006 16.9938H8.47854C8.39807 16.9938 8.33208 16.9271 8.33208 16.8457V16.0417C8.33047 15.9603 8.39807 15.8919 8.47854 15.8919ZM12.6518 13.9827H13.5933C13.6738 13.9827 13.7382 14.0495 13.7382 14.1309V14.9349C13.7382 15.0163 13.6722 15.083 13.5933 15.083H12.6518C12.5714 15.083 12.5054 15.0163 12.5054 14.9349V14.1309C12.5038 14.0495 12.5697 13.9827 12.6518 13.9827ZM12.6518 17.8027H13.5933C13.6738 17.8027 13.7382 17.8695 13.7382 17.9508V18.7533C13.7382 18.8346 13.6722 18.9014 13.5933 18.9014H12.6518C12.5714 18.9014 12.5054 18.8346 12.5054 18.7533V17.9492C12.5038 17.8711 12.5697 17.8027 12.6518 17.8027ZM12.6518 15.8919H13.5933C13.6738 15.8919 13.7382 15.9587 13.7382 16.0417V16.8457C13.7382 16.9271 13.6722 16.9938 13.5933 16.9938H12.6518C12.5714 16.9938 12.5054 16.9271 12.5054 16.8457V16.0417C12.5038 15.9603 12.5697 15.8919 12.6518 15.8919ZM10.5644 13.9827H11.5059C11.5864 13.9827 11.6524 14.0495 11.6524 14.1309V14.9349C11.6524 15.0163 11.5864 15.083 11.5059 15.083H10.5644C10.4839 15.083 10.4179 15.0163 10.4179 14.9349V14.1309C10.4163 14.0495 10.4839 13.9827 10.5644 13.9827ZM10.5644 17.8027H11.5059C11.5864 17.8027 11.6524 17.8695 11.6524 17.9508V18.7533C11.6524 18.8346 11.5864 18.9014 11.5059 18.9014H10.5644C10.4839 18.9014 10.4179 18.8346 10.4179 18.7533V17.9492C10.4163 17.8711 10.4839 17.8027 10.5644 17.8027ZM10.5644 15.8919H11.5059C11.5864 15.8919 11.6524 15.9587 11.6524 16.0417V16.8457C11.6524 16.9271 11.5864 16.9938 11.5059 16.9938H10.5644C10.4839 16.9938 10.4179 16.9271 10.4179 16.8457V16.0417C10.4163 15.9603 10.4839 15.8919 10.5644 15.8919ZM8.35461 10.721H13.7157C13.7977 10.721 13.8702 10.7536 13.9233 10.8089L13.9362 10.8236C13.9828 10.8773 14.0102 10.9456 14.0102 11.0189V12.7116C14.0102 12.793 13.978 12.8678 13.9233 12.9215C13.8702 12.9753 13.7961 13.0094 13.7157 13.0094H8.35461C8.27253 13.0094 8.20011 12.9769 8.147 12.9215L8.13412 12.9069C8.08745 12.8532 8.06009 12.7848 8.06009 12.7116V11.0173C8.06009 10.9359 8.09227 10.8626 8.147 10.8073C8.20011 10.7552 8.27414 10.721 8.35461 10.721ZM13.677 11.0563H8.39324V12.6725H13.677V11.0563ZM14.4029 10.0033H7.66738C7.61749 10.0033 7.57242 10.0244 7.53863 10.057C7.50644 10.0895 7.48551 10.1351 7.48551 10.1855V19.3978C7.48551 19.445 7.50322 19.4873 7.53058 19.5182L7.53863 19.5264C7.57082 19.5589 7.61588 19.5801 7.66577 19.5801H14.4013C14.4512 19.5801 14.4962 19.5589 14.5284 19.5264C14.5606 19.4938 14.5815 19.4482 14.5815 19.3978V10.1855C14.5815 10.1383 14.5638 10.096 14.5365 10.0651L14.5284 10.057C14.4979 10.0228 14.4528 10.0033 14.4029 10.0033ZM2.76502 10.6934C2.5912 10.6934 2.45118 10.5518 2.45118 10.376C2.45118 10.2002 2.5912 10.0586 2.76502 10.0586H5.38519C5.55901 10.0586 5.69903 10.2002 5.69903 10.376C5.69903 10.5518 5.55901 10.6934 5.38519 10.6934H2.76502ZM2.76502 13.0973C2.5912 13.0973 2.45118 12.9557 2.45118 12.7799C2.45118 12.6042 2.5912 12.4626 2.76502 12.4626H5.38519C5.55901 12.4626 5.69903 12.6042 5.69903 12.7799C5.69903 12.9557 5.55901 13.0973 5.38519 13.0973H2.76502ZM2.87607 2.78809C2.68616 2.78809 2.52521 2.94434 2.52521 3.14453C2.52521 3.33659 2.67972 3.49935 2.87607 3.49935H5.27897C5.46888 3.49935 5.63144 3.3431 5.63144 3.14453C5.63144 2.95247 5.47693 2.78809 5.27897 2.78809H2.87607ZM9.66309 3.78092V1.20931L12.5279 4.14225H10.0204C9.92221 4.14225 9.8353 4.09831 9.7677 4.03646C9.70494 3.97298 9.66309 3.88021 9.66309 3.78092ZM2.87607 5.23763C2.68616 5.23763 2.52521 5.39388 2.52521 5.59245C2.52521 5.78451 2.67972 5.94889 2.87607 5.94889H9.02092C9.21084 5.94889 9.37339 5.79264 9.37339 5.59245C9.37339 5.40039 9.21888 5.236 9.02092 5.236L2.87607 5.23763ZM2.87607 7.60417C2.68616 7.60417 2.52521 7.76042 2.52521 7.96061C2.52521 8.15267 2.67972 8.31706 2.87607 8.31706H10.8187C11.0086 8.31706 11.1711 8.16081 11.1711 7.96061C11.1711 7.76855 11.0166 7.60417 10.8187 7.60417H2.87607Z" fill="black" fill-opacity="0.5"/>
</g>
<defs>
<clipPath id="clip0_198_6713">
<rect width="15" height="20" fill="white"/>
</clipPath>
</defs>
</svg>
