<svg width="22" height="21" viewBox="0 0 22 21" fill="none" xmlns="http://www.w3.org/2000/svg">
<g clip-path="url(#clip0_198_6710)">
<path fill-rule="evenodd" clip-rule="evenodd" d="M16.7475 0C18.1973 0 19.5108 0.576213 20.4609 1.50682C21.4118 2.43786 22 3.72497 22 5.14509C22 6.56563 21.4118 7.85274 20.4617 8.78336C19.5108 9.71439 18.1973 10.291 16.7475 10.291C15.299 10.291 13.9859 9.71523 13.035 8.78336C12.0815 7.84896 11.4941 6.56268 11.4941 5.14509C11.4941 3.72497 12.0824 2.43786 13.0333 1.50682C13.9833 0.576213 15.2973 0 16.7475 0ZM5.46262 3.91732L1.95078 7.55264H5.46262V3.91732ZM0 8.24208C0 8.19368 0.00644531 8.14653 0.0176172 8.10108C0.0232031 7.96891 0.0760547 7.83717 0.176172 7.73363L5.5202 2.20215C5.61945 2.02622 5.81152 1.9071 6.03152 1.9071H10.9046C10.6954 2.26908 10.5192 2.6521 10.3821 3.05195H6.63094V8.12465C6.63094 8.44032 6.36926 8.69665 6.04699 8.69665H1.16875V19.8552H18.0134V11.6034C18.4173 11.5276 18.8079 11.4165 19.1825 11.2738V19.8623C19.1825 20.1734 19.0515 20.4579 18.8418 20.6641C18.6287 20.872 18.3382 21 18.0207 21H1.16188C0.842617 21 0.551289 20.8712 0.341602 20.6658C0.131914 20.46 0 20.1746 0 19.8623V8.24208ZM13.9601 11.5836C14.2837 11.5836 14.5471 11.8383 14.5471 12.1527C14.5471 12.4671 14.2837 12.7217 13.9601 12.7217H5.22242C4.89844 12.7217 4.63547 12.4671 4.63547 12.1527C4.63547 11.8383 4.89844 11.5836 5.22242 11.5836H13.9601ZM13.9601 15.4235C14.2837 15.4235 14.5471 15.6781 14.5471 15.9925C14.5471 16.307 14.2837 16.5616 13.9601 16.5616H5.22242C4.89844 16.5616 4.63547 16.307 4.63547 15.9925C4.63547 15.6781 4.89844 15.4235 5.22242 15.4235H13.9601ZM15.2165 4.11893L16.2392 5.07017L18.1521 3.16812C18.3305 2.9905 18.4418 2.84866 18.6622 3.06963L19.3768 3.78558C19.6105 4.01245 19.5985 4.14545 19.3772 4.35716L16.6461 6.98653C16.1807 7.43395 16.2611 7.46215 15.7889 7.00168L14.0138 5.27304C13.9167 5.16866 13.927 5.06344 14.0332 4.95779L14.862 4.11683C14.9875 3.9893 15.0876 3.99729 15.2165 4.11893Z" fill="black" fill-opacity="0.5"/>
</g>
<defs>
<clipPath id="clip0_198_6710">
<rect width="22" height="21" fill="white"/>
</clipPath>
</defs>
</svg>
