<svg width="21" height="22" viewBox="0 0 21 22" fill="none" xmlns="http://www.w3.org/2000/svg">
<g clip-path="url(#clip0_8_96)">
<path d="M10.4927 21.6292C7.41413 21.6292 4.33559 21.6244 1.25698 21.6371C0.960682 21.6384 0.83042 21.5507 0.760007 21.2629C0.508162 20.2343 0.359544 19.2151 0.827276 18.2027C1.26628 17.2526 2.01855 16.6232 2.88474 16.1167C4.49842 15.1731 6.24716 14.6137 8.06497 14.2497C8.27604 14.2075 8.36129 14.2822 8.46323 14.4414C8.97103 15.236 9.48956 16.0236 10.0043 16.8136C10.0564 16.8934 10.1052 16.9758 10.1618 17.0524C10.4246 17.4081 10.6159 17.4041 10.8585 17.0343C11.2187 16.4852 11.5755 15.9338 11.9335 15.3831C12.1529 15.0456 12.3641 14.7021 12.5964 14.3742C12.6482 14.3012 12.7842 14.229 12.863 14.2457C14.8929 14.6779 16.8431 15.3302 18.5929 16.4964C19.4558 17.0715 20.1382 17.8114 20.3915 18.8654C20.6082 19.7668 20.4339 20.6418 20.1233 21.4907C20.0951 21.568 19.9062 21.6228 19.7915 21.6235C18.2523 21.6321 16.713 21.6292 15.1736 21.6292H10.4927ZM10.5082 19.0644C10.4213 18.9372 10.3666 18.8601 10.3149 18.781C9.61278 17.7081 8.91308 16.6337 8.20856 15.5625C7.92563 15.1325 7.8246 15.0987 7.34904 15.2283C7.127 15.2889 6.90327 15.3438 6.68231 15.408C5.36951 15.789 4.08551 16.2461 2.96024 17.0565C1.8947 17.824 1.08038 18.7363 1.35392 20.2227C1.44552 20.7203 1.50323 20.7976 1.99604 20.7976H18.6729C18.7358 20.7976 18.9652 20.7908 19.0183 20.7903C19.3855 20.7871 19.5438 20.6565 19.5842 20.4747C19.7465 19.7213 19.8024 18.9444 19.2629 18.3169C18.8607 17.8488 18.41 17.401 17.9107 17.0465C16.7576 16.2274 15.4418 15.754 14.094 15.3811C13.0658 15.0966 13.2204 14.9119 12.5451 15.9462C11.8743 16.974 11.2027 18.0014 10.5082 19.0644ZM12.6057 12.7313C11.8462 13.268 11.0083 13.5006 10.11 13.3884C7.90315 13.1127 6.62652 11.5136 6.16469 9.62535C6.11174 9.40882 6.07581 9.18755 6.04119 8.96697C5.99788 8.69104 5.84362 8.56003 5.571 8.56084C5.02613 8.56252 4.481 8.5503 3.93664 8.56657C3.71578 8.57317 3.64864 8.48592 3.62758 8.2801C3.42219 6.27515 3.79902 4.43866 5.13979 2.88653C5.93335 1.96792 6.93017 1.34349 8.06201 0.969036C10.7156 0.0909818 13.1595 0.53906 15.3087 2.34583C16.622 3.44988 17.2819 4.9395 17.3987 6.6686C17.4458 7.3649 17.3929 8.05808 17.1471 8.71443C16.8308 9.5594 16.1641 10.0479 15.3793 10.3846C13.9506 10.9975 12.4677 11.128 10.9458 10.863C10.8885 10.8493 10.8273 10.8279 10.7603 10.8076C10.5538 10.7315 10.4136 10.5525 10.4856 10.3474C10.5548 10.1506 10.7306 10.1434 10.8707 10.1608C11.0554 10.1778 11.1088 10.2015 11.2782 10.2248C12.5111 10.3945 13.7369 10.375 14.8803 9.82601C16.2918 9.14835 17.0265 7.97946 16.6245 6.28546C16.0464 3.84947 14.5703 2.20223 12.2407 1.50238C9.74905 0.753922 7.55381 1.45588 5.7359 3.35252C5.00878 4.11109 4.48679 4.9878 4.31598 6.0401C4.24029 6.50679 4.25273 6.99067 4.25198 7.46686C4.2516 7.74637 4.42719 7.8819 4.70393 7.87826C4.96584 7.87484 5.22781 7.87681 5.48978 7.87577C5.85452 7.87444 5.99011 7.74863 6.04233 7.37585C6.20448 6.21645 6.63753 5.1742 7.43167 4.32224C9.48791 2.11626 13.0096 2.71082 14.3691 5.47957C14.6454 6.04265 14.8792 6.66004 14.9512 7.30765C14.8592 7.31772 14.773 7.31679 14.7016 7.31969C14.403 7.33167 14.2765 7.25896 14.2041 6.9249C13.9694 5.84285 13.366 4.98326 12.4997 4.3207C11.1146 3.26131 9.29852 3.44738 7.99731 4.77038C5.86031 6.94332 6.29625 10.7736 8.85553 12.2936C9.34375 12.5837 9.87131 12.7348 10.4403 12.732C11.1622 12.7287 11.884 12.7313 12.6057 12.7313Z" fill="#0067B8"/>
</g>
<defs>
<clipPath id="clip0_8_96">
<rect width="21" height="22" fill="white"/>
</clipPath>
</defs>
</svg>
