<svg width="18" height="21" viewBox="0 0 18 21" fill="none" xmlns="http://www.w3.org/2000/svg">
<g clip-path="url(#clip0_198_6906)">
<path fill-rule="evenodd" clip-rule="evenodd" d="M13.3992 10.4653H15.9623V9.9544C15.8157 9.39548 15.5823 9.01658 15.2801 8.78612C14.9778 8.55607 14.586 8.45766 14.126 8.46094L3.61434 8.4634C3.35549 8.4634 3.14602 8.24729 3.14602 7.98116C3.14602 7.71461 3.35549 7.49892 3.61434 7.49892L14.1137 7.50015C14.7743 7.49359 15.3573 7.64859 15.836 8.01396C15.879 8.04677 15.9212 8.08121 15.9623 8.1173V7.82738C15.9623 7.37713 15.7819 6.96542 15.4915 6.66648C15.2036 6.36754 14.8046 6.1826 14.365 6.1826H14.0269L13.9835 6.18055L13.8182 6.81861H12.6824L13.3562 4.21591C12.79 4.06008 12.4523 3.45728 12.604 2.87417L8.85624 1.84039C8.70451 2.42309 8.11951 2.77165 7.55403 2.61541L6.45372 6.81861H5.28252L7.0646 0L15.0173 2.19427L14.2331 5.21771H14.365C15.0599 5.21771 15.6935 5.51255 16.153 5.98535C16.6134 6.45734 16.8989 7.11099 16.8989 7.82738V10.4924C17.1693 10.5478 17.411 10.6856 17.5986 10.8787C17.8459 11.1334 18 11.486 18 11.8743V15.0462C18 15.451 17.8391 15.8192 17.5811 16.0845C17.3967 16.2744 17.1617 16.4134 16.8989 16.4769V18.3903C16.8989 19.1063 16.613 19.7595 16.1534 20.2328L16.1239 20.2606C15.666 20.7171 15.0443 21 14.365 21H2.53394C1.83823 21 1.20385 20.706 0.744292 20.2332C0.285531 19.7608 0 19.1084 0 18.3903V7.82738C0 7.10894 0.285133 6.45652 0.743894 5.98412C1.20265 5.51173 1.83664 5.21771 2.53394 5.21771H4.01217L4.01854 5.21812L5.19531 0.717619L6.31792 1.02722L4.77558 6.81861H3.6L3.76646 6.1826H2.53394C2.09549 6.1826 1.69606 6.36795 1.40615 6.66607C1.11664 6.96419 0.936637 7.3759 0.936637 7.82738V18.3903C0.936637 18.8418 1.11704 19.2527 1.40695 19.5508C1.69686 19.8498 2.09668 20.0355 2.53394 20.0355H14.365C14.7923 20.0355 15.1829 19.8592 15.4696 19.5742L15.4912 19.5504C15.7815 19.2519 15.9623 18.8402 15.9623 18.3903V16.5159H13.3992C12.6076 16.5159 11.8876 16.1821 11.3675 15.6466L11.3185 15.5912C10.8263 15.0581 10.5228 14.3397 10.5228 13.554V13.4269C10.5228 12.6153 10.8466 11.8756 11.3675 11.338L11.3727 11.3326C11.8943 10.7975 12.6119 10.4653 13.3992 10.4653ZM9.58779 6.64925C10.2723 6.83789 10.9772 6.41962 11.1604 5.7143C11.344 5.00939 10.937 4.28357 10.2524 4.09494C9.56748 3.90631 8.86261 4.32458 8.67943 5.0299C8.49624 5.7348 8.90323 6.46021 9.58779 6.64925ZM14.4279 12.674L14.4303 12.676C14.8655 13.1255 14.8643 13.8566 14.4295 14.3056L14.4275 14.3081C13.991 14.7563 13.281 14.7551 12.8445 14.3073L12.8425 14.3052C12.4073 13.8558 12.4085 13.1246 12.8433 12.6752L12.8453 12.6732C13.2818 12.225 13.9918 12.2258 14.4279 12.674Z" fill="black" fill-opacity="0.5"/>
</g>
<defs>
<clipPath id="clip0_198_6906">
<rect width="18" height="21" fill="white"/>
</clipPath>
</defs>
</svg>
