<svg width="31" height="23" viewBox="0 0 31 23" fill="none" xmlns="http://www.w3.org/2000/svg">
<path d="M8.23733 7.08104L15.3233 3.78115C15.5802 3.66149 15.8827 3.66149 16.1396 3.78115L23.2255 7.08104C24.087 7.48219 23.7805 8.69141 22.8174 8.69141H8.64549C7.68241 8.69141 7.37592 7.48219 8.23733 7.08104Z" stroke="#0067B8"/>
<path d="M22.2314 15.6914H9.23145C8.40302 15.6914 7.73145 16.363 7.73145 17.1914C7.73145 18.0198 8.40302 18.6914 9.23145 18.6914H22.2314C23.0599 18.6914 23.7314 18.0198 23.7314 17.1914C23.7314 16.363 23.0599 15.6914 22.2314 15.6914Z" stroke="#0067B8"/>
<path d="M10.7314 10.1914V14.1914" stroke="#0067B8" stroke-linecap="round"/>
<path d="M20.2314 10.1914V14.1914" stroke="#0067B8" stroke-linecap="round"/>
<path d="M15.2314 10.1914V14.1914" stroke="#0067B8" stroke-linecap="round"/>
</svg>
